<svg width="173" height="42" viewBox="0 0 173 42" fill="none" xmlns="http://www.w3.org/2000/svg"><path d="M10.22 29h3.14V10.93H8.8c-4.6 0-7.02 2.37-7.02 5.85 0 2.78 1.32 4.42 3.69 6.11L1.36 29h3.4l4.57-6.84-1.58-1.06c-1.93-1.3-2.86-2.32-2.86-4.5 0-1.92 1.35-3.22 3.92-3.22h1.4V29zm41.3-.88v-2.53a7.89 7.89 0 0 1-4.08 1.23c-2.26 0-3.12-1.07-3.25-3.25h7.47v-1.64c0-4.55-2-6.27-5.1-6.27-3.77 0-5.56 2.89-5.56 6.84 0 4.55 2.23 6.76 6.18 6.76 1.98 0 3.44-.52 4.35-1.14zm19.35 1.14c1.43 0 2.44-.26 3.2-.8v-2.53a5 5 0 0 1-3.02.89c-2.21 0-3.12-1.72-3.12-4.42 0-2.84 1.12-4.3 3.15-4.3 1.2 0 2.36.42 2.99.81V16.3a7.21 7.21 0 0 0-3.33-.63c-3.95 0-6 2.84-6 6.81 0 4.37 2 6.79 6.13 6.79zM23.19 15.92v5.18h-4.13v-5.18h-3.1V29h3.1v-5.46h4.13V29h3.1V15.92h-3.1zm17.05 10.64h-1.37V15.92h-9.03v1.12c0 3.2-.2 7.33-1.3 9.52h-.96v5.43h2.86V29h6.94v2.99h2.86v-5.43zM61.4 29h3.51l-4.96-7.05 4.37-6.03H61.2l-4.37 6.03v-6.03h-3.1V29h3.1v-6.42L61.4 29zM46.5 18.1c1.54 0 2.01 1.28 2.01 2.92v.26h-4.32c.08-2.08.84-3.17 2.32-3.17zm-10.73 8.46H31.4c.86-1.98 1.1-5.54 1.1-7.8v-.4h3.27v8.2z" fill="#21201F"/><g clip-path="url(#1b79b5202a390da20e3f4d8e3b759add__a)"><g clip-path="url(#1b79b5202a390da20e3f4d8e3b759add__b)"><path fill-rule="evenodd" clip-rule="evenodd" d="M85.22 33.27c-1.8-.24-3.32-.76-4.52-1.97-1.2-1.2-1.72-2.71-1.97-4.52-.23-1.73-.23-3.93-.23-6.67v-.22c0-2.73 0-4.94.23-6.67.25-1.8.76-3.32 1.97-4.52 1.2-1.2 2.72-1.72 4.52-1.97 1.73-.23 3.94-.23 6.67-.23h.22c2.73 0 4.94 0 6.67.23 1.8.25 3.32.76 4.52 1.97 1.2 1.2 1.73 2.72 1.97 4.52.23 1.73.23 3.94.23 6.67v.22c0 2.74 0 4.94-.23 6.68-.24 1.8-.76 3.31-1.97 4.51-1.2 1.2-2.72 1.73-4.52 1.97-1.73.23-3.94.23-6.67.23h-.22c-2.73 0-4.94 0-6.67-.23z" fill="#fff"/><path d="M87.05 24.95c-6.42-6.42-7.05-9.79-6.84-11.47C80 15.1 80 17.2 80 20c0 5.66 0 8.49 1.75 10.25C83.52 32 86.35 32 92 32c2.79 0 4.9 0 6.53-.2-1.69.2-5.06-.43-11.48-6.85z" fill="url(#1b79b5202a390da20e3f4d8e3b759add__c)"/><path d="M102.25 9.76C100.48 8 97.65 8 92 8c-5.66 0-8.48 0-10.25 1.76-.88.89-1.32 2.05-1.54 3.72-.21 1.68.4 5.04 6.84 11.47 6.44 6.44 9.79 7.06 11.48 6.84 1.66-.21 2.83-.65 3.72-1.54C104 28.49 104 25.65 104 20s0-8.48-1.75-10.24z" fill="url(#1b79b5202a390da20e3f4d8e3b759add__d)"/><path d="m95.15 29.1-.03-.32c-.48-5.13-.72-7.7-2.47-9.43-1.74-1.75-4.3-1.99-9.43-2.47l-.32-.03a3 3 0 0 1-2.69-3.37c-.08.36-.13.75-.08 1.12.09.84.33 1.68.62 2.33.82 1.83 2.53 4.76 6.04 8.28 3.52 3.51 6.45 5.22 8.27 6.04.65.29 1.5.53 2.34.62.37.05.75 0 1.12-.08a3 3 0 0 1-3.37-2.7z" fill="url(#1b79b5202a390da20e3f4d8e3b759add__e)"/></g></g><path d="M109.39 26.14V29s.44.26 1.3.26c3.06 0 3.92-2.52 4.08-9.12l.18-6.76h4.42V29h3.14V10.93h-10.4l-.23 9.26c-.1 4.39-.33 6.18-1.6 6.18-.63 0-.9-.23-.9-.23zm25.5-6.06c0-3.17-1.6-4.36-4.88-4.36-2.05 0-3.66.65-4.6 1.2v2.57a8.1 8.1 0 0 1 4.24-1.3c1.48 0 2.15.52 2.15 1.92v.73h-.49c-4.73 0-6.84 1.56-6.84 4.2 0 2.66 1.61 4.14 4 4.14 1.83 0 2.6-.6 3.2-1.22h.13c.03.34.13.78.24 1.04h3.01a32.9 32.9 0 0 1-.15-3.2v-5.72zm-3.09 5.8c-.39.57-1.11 1.04-2.2 1.04-1.3 0-1.95-.78-1.95-1.95 0-1.53 1.06-2.08 3.71-2.08h.44v2.99zM142.53 29c3.07 0 4.89-1.3 4.89-3.8 0-1.71-1.04-2.7-2.78-3.01 1.4-.4 2.29-1.38 2.29-2.94 0-2.23-1.49-3.33-4.34-3.33h-5.2V29h5.14zm-.39-10.74c1.12 0 1.75.47 1.75 1.46 0 .9-.68 1.45-1.85 1.45h-1.56v-2.9h1.66zm.06 5.18c1.32 0 2.02.46 2.02 1.56 0 1.2-.78 1.66-2.03 1.66h-1.71v-3.22h1.72zM157.16 29h3.51l-4.96-7.05 4.37-6.03h-3.12l-4.37 6.03v-6.03h-3.1V29h3.1v-6.42l4.57 6.42zm14.04-8.92c0-3.17-1.6-4.36-4.88-4.36-2.06 0-3.67.65-4.6 1.2v2.57a8.1 8.1 0 0 1 4.23-1.3c1.48 0 2.16.52 2.16 1.92v.73h-.5c-4.73 0-6.83 1.56-6.83 4.2 0 2.66 1.6 4.14 4 4.14 1.82 0 2.6-.6 3.2-1.22h.13c.02.34.13.78.23 1.04h3.02a32.9 32.9 0 0 1-.16-3.2v-5.72zm-3.1 5.8c-.38.57-1.1 1.04-2.2 1.04-1.3 0-1.95-.78-1.95-1.95 0-1.53 1.06-2.08 3.72-2.08h.44v2.99z" fill="#21201F"/><defs><linearGradient id="1b79b5202a390da20e3f4d8e3b759add__c" x1="80" y1="32.002" x2="98.527" y2="13.478" gradientUnits="userSpaceOnUse"><stop stop-color="#00E6E6"/><stop offset=".495" stop-color="#0059B3"/></linearGradient><linearGradient id="1b79b5202a390da20e3f4d8e3b759add__d" x1="80.175" y1="31.827" x2="106.433" y2="11.081" gradientUnits="userSpaceOnUse"><stop stop-color="#00BFFF"/><stop offset="1" stop-color="#80FFEA"/></linearGradient><linearGradient id="1b79b5202a390da20e3f4d8e3b759add__e" x1="87.227" y1="25.075" x2="92.231" y2="20.569" gradientUnits="userSpaceOnUse"><stop stop-color="#E6FBFF"/><stop offset="1" stop-color="#fff"/></linearGradient><clipPath id="1b79b5202a390da20e3f4d8e3b759add__a"><path fill="#fff" transform="translate(80 8.001)" d="M0 0h24v24H0z"/></clipPath><clipPath id="1b79b5202a390da20e3f4d8e3b759add__b"><path fill="#fff" transform="translate(76 4.001)" d="M0 0h32v32H0z"/></clipPath></defs></svg>